0 fortress_city
0 Generated by LegoMCP
0 Name: fortress_city.ldr

1 2 -320 0 -320 1 0 0 0 1 0 0 0 1 3811.dat
1 2 -320 0 320 1 0 0 0 1 0 0 0 1 3811.dat
1 2 320 0 -320 1 0 0 0 1 0 0 0 1 3811.dat
1 2 320 0 320 1 0 0 0 1 0 0 0 1 3811.dat
1 71 -600 -4 -500 1 0 0 0 1 0 0 0 1 3001.dat
1 71 -520 -4 -500 1 0 0 0 1 0 0 0 1 3001.dat
1 71 -500 -4 -440 0 0 1 0 1 0 -1 0 0 3001.dat
1 71 -600 -4 -380 1 0 0 0 1 0 0 0 1 3001.dat
1 71 -520 -4 -380 1 0 0 0 1 0 0 0 1 3001.dat
1 71 -620 -4 -440 0 0 1 0 1 0 -1 0 0 3001.dat
1 71 -560 -28 -500 1 0 0 0 1 0 0 0 1 3001.dat
1 71 -500 -28 -480 0 0 1 0 1 0 -1 0 0 3001.dat
1 71 -500 -28 -400 0 0 1 0 1 0 -1 0 0 3001.dat
1 71 -560 -28 -380 1 0 0 0 1 0 0 0 1 3001.dat
1 71 -620 -28 -480 0 0 1 0 1 0 -1 0 0 3001.dat
1 71 -620 -28 -400 0 0 1 0 1 0 -1 0 0 3001.dat
1 71 -600 -52 -500 1 0 0 0 1 0 0 0 1 3001.dat
1 71 -520 -52 -500 1 0 0 0 1 0 0 0 1 3001.dat
1 71 -500 -52 -440 0 0 1 0 1 0 -1 0 0 3001.dat
1 71 -600 -52 -380 1 0 0 0 1 0 0 0 1 3001.dat
1 71 -520 -52 -380 1 0 0 0 1 0 0 0 1 3001.dat
1 71 -620 -52 -440 0 0 1 0 1 0 -1 0 0 3001.dat
1 71 -560 -76 -500 1 0 0 0 1 0 0 0 1 3001.dat
1 71 -500 -76 -480 0 0 1 0 1 0 -1 0 0 3001.dat
1 71 -500 -76 -400 0 0 1 0 1 0 -1 0 0 3001.dat
1 71 -560 -76 -380 1 0 0 0 1 0 0 0 1 3001.dat
1 71 -620 -76 -480 0 0 1 0 1 0 -1 0 0 3001.dat
1 71 -620 -76 -400 0 0 1 0 1 0 -1 0 0 3001.dat
1 71 -600 -100 -500 1 0 0 0 1 0 0 0 1 3001.dat
1 71 -520 -100 -500 1 0 0 0 1 0 0 0 1 3001.dat
1 71 -500 -100 -440 0 0 1 0 1 0 -1 0 0 3001.dat
1 71 -600 -100 -380 1 0 0 0 1 0 0 0 1 3001.dat
1 71 -520 -100 -380 1 0 0 0 1 0 0 0 1 3001.dat
1 71 -620 -100 -440 0 0 1 0 1 0 -1 0 0 3001.dat
1 71 -560 -124 -500 1 0 0 0 1 0 0 0 1 3001.dat
1 71 -500 -124 -480 0 0 1 0 1 0 -1 0 0 3001.dat
1 71 -500 -124 -400 0 0 1 0 1 0 -1 0 0 3001.dat
1 71 -560 -124 -380 1 0 0 0 1 0 0 0 1 3001.dat
1 71 -620 -124 -480 0 0 1 0 1 0 -1 0 0 3001.dat
1 71 -620 -124 -400 0 0 1 0 1 0 -1 0 0 3001.dat
1 71 -600 -148 -500 1 0 0 0 1 0 0 0 1 3001.dat
1 71 -520 -148 -500 1 0 0 0 1 0 0 0 1 3001.dat
1 71 -500 -148 -440 0 0 1 0 1 0 -1 0 0 3001.dat
1 71 -600 -148 -380 1 0 0 0 1 0 0 0 1 3001.dat
1 71 -520 -148 -380 1 0 0 0 1 0 0 0 1 3001.dat
1 71 -620 -148 -440 0 0 1 0 1 0 -1 0 0 3001.dat
1 71 -560 -172 -500 1 0 0 0 1 0 0 0 1 3001.dat
1 71 -500 -172 -480 0 0 1 0 1 0 -1 0 0 3001.dat
1 71 -500 -172 -400 0 0 1 0 1 0 -1 0 0 3001.dat
1 71 -560 -172 -380 1 0 0 0 1 0 0 0 1 3001.dat
1 71 -620 -172 -480 0 0 1 0 1 0 -1 0 0 3001.dat
1 71 -620 -172 -400 0 0 1 0 1 0 -1 0 0 3001.dat
1 71 520 -4 -500 1 0 0 0 1 0 0 0 1 3001.dat
1 71 600 -4 -500 1 0 0 0 1 0 0 0 1 3001.dat
1 71 620 -4 -440 0 0 1 0 1 0 -1 0 0 3001.dat
1 71 520 -4 -380 1 0 0 0 1 0 0 0 1 3001.dat
1 71 600 -4 -380 1 0 0 0 1 0 0 0 1 3001.dat
1 71 500 -4 -440 0 0 1 0 1 0 -1 0 0 3001.dat
1 71 560 -28 -500 1 0 0 0 1 0 0 0 1 3001.dat
1 71 620 -28 -480 0 0 1 0 1 0 -1 0 0 3001.dat
1 71 620 -28 -400 0 0 1 0 1 0 -1 0 0 3001.dat
1 71 560 -28 -380 1 0 0 0 1 0 0 0 1 3001.dat
1 71 500 -28 -480 0 0 1 0 1 0 -1 0 0 3001.dat
1 71 500 -28 -400 0 0 1 0 1 0 -1 0 0 3001.dat
1 71 520 -52 -500 1 0 0 0 1 0 0 0 1 3001.dat
1 71 600 -52 -500 1 0 0 0 1 0 0 0 1 3001.dat
1 71 620 -52 -440 0 0 1 0 1 0 -1 0 0 3001.dat
1 71 520 -52 -380 1 0 0 0 1 0 0 0 1 3001.dat
1 71 600 -52 -380 1 0 0 0 1 0 0 0 1 3001.dat
1 71 500 -52 -440 0 0 1 0 1 0 -1 0 0 3001.dat
1 71 560 -76 -500 1 0 0 0 1 0 0 0 1 3001.dat
1 71 620 -76 -480 0 0 1 0 1 0 -1 0 0 3001.dat
1 71 620 -76 -400 0 0 1 0 1 0 -1 0 0 3001.dat
1 71 560 -76 -380 1 0 0 0 1 0 0 0 1 3001.dat
1 71 500 -76 -480 0 0 1 0 1 0 -1 0 0 3001.dat
1 71 500 -76 -400 0 0 1 0 1 0 -1 0 0 3001.dat
1 71 520 -100 -500 1 0 0 0 1 0 0 0 1 3001.dat
1 71 600 -100 -500 1 0 0 0 1 0 0 0 1 3001.dat
1 71 620 -100 -440 0 0 1 0 1 0 -1 0 0 3001.dat
1 71 520 -100 -380 1 0 0 0 1 0 0 0 1 3001.dat
1 71 600 -100 -380 1 0 0 0 1 0 0 0 1 3001.dat
1 71 500 -100 -440 0 0 1 0 1 0 -1 0 0 3001.dat
1 71 560 -124 -500 1 0 0 0 1 0 0 0 1 3001.dat
1 71 620 -124 -480 0 0 1 0 1 0 -1 0 0 3001.dat
1 71 620 -124 -400 0 0 1 0 1 0 -1 0 0 3001.dat
1 71 560 -124 -380 1 0 0 0 1 0 0 0 1 3001.dat
1 71 500 -124 -480 0 0 1 0 1 0 -1 0 0 3001.dat
1 71 500 -124 -400 0 0 1 0 1 0 -1 0 0 3001.dat
1 71 520 -148 -500 1 0 0 0 1 0 0 0 1 3001.dat
1 71 600 -148 -500 1 0 0 0 1 0 0 0 1 3001.dat
1 71 620 -148 -440 0 0 1 0 1 0 -1 0 0 3001.dat
1 71 520 -148 -380 1 0 0 0 1 0 0 0 1 3001.dat
1 71 600 -148 -380 1 0 0 0 1 0 0 0 1 3001.dat
1 71 500 -148 -440 0 0 1 0 1 0 -1 0 0 3001.dat
1 71 560 -172 -500 1 0 0 0 1 0 0 0 1 3001.dat
1 71 620 -172 -480 0 0 1 0 1 0 -1 0 0 3001.dat
1 71 620 -172 -400 0 0 1 0 1 0 -1 0 0 3001.dat
1 71 560 -172 -380 1 0 0 0 1 0 0 0 1 3001.dat
1 71 500 -172 -480 0 0 1 0 1 0 -1 0 0 3001.dat
1 71 500 -172 -400 0 0 1 0 1 0 -1 0 0 3001.dat
1 71 -600 -4 380 1 0 0 0 1 0 0 0 1 3001.dat
1 71 -520 -4 380 1 0 0 0 1 0 0 0 1 3001.dat
1 71 -500 -4 440 0 0 1 0 1 0 -1 0 0 3001.dat
1 71 -600 -4 500 1 0 0 0 1 0 0 0 1 3001.dat
1 71 -520 -4 500 1 0 0 0 1 0 0 0 1 3001.dat
1 71 -620 -4 440 0 0 1 0 1 0 -1 0 0 3001.dat
1 71 -560 -28 380 1 0 0 0 1 0 0 0 1 3001.dat
1 71 -500 -28 400 0 0 1 0 1 0 -1 0 0 3001.dat
1 71 -500 -28 480 0 0 1 0 1 0 -1 0 0 3001.dat
1 71 -560 -28 500 1 0 0 0 1 0 0 0 1 3001.dat
1 71 -620 -28 400 0 0 1 0 1 0 -1 0 0 3001.dat
1 71 -620 -28 480 0 0 1 0 1 0 -1 0 0 3001.dat
1 71 -600 -52 380 1 0 0 0 1 0 0 0 1 3001.dat
1 71 -520 -52 380 1 0 0 0 1 0 0 0 1 3001.dat
1 71 -500 -52 440 0 0 1 0 1 0 -1 0 0 3001.dat
1 71 -600 -52 500 1 0 0 0 1 0 0 0 1 3001.dat
1 71 -520 -52 500 1 0 0 0 1 0 0 0 1 3001.dat
1 71 -620 -52 440 0 0 1 0 1 0 -1 0 0 3001.dat
1 71 -560 -76 380 1 0 0 0 1 0 0 0 1 3001.dat
1 71 -500 -76 400 0 0 1 0 1 0 -1 0 0 3001.dat
1 71 -500 -76 480 0 0 1 0 1 0 -1 0 0 3001.dat
1 71 -560 -76 500 1 0 0 0 1 0 0 0 1 3001.dat
1 71 -620 -76 400 0 0 1 0 1 0 -1 0 0 3001.dat
1 71 -620 -76 480 0 0 1 0 1 0 -1 0 0 3001.dat
1 71 -600 -100 380 1 0 0 0 1 0 0 0 1 3001.dat
1 71 -520 -100 380 1 0 0 0 1 0 0 0 1 3001.dat
1 71 -500 -100 440 0 0 1 0 1 0 -1 0 0 3001.dat
1 71 -600 -100 500 1 0 0 0 1 0 0 0 1 3001.dat
1 71 -520 -100 500 1 0 0 0 1 0 0 0 1 3001.dat
1 71 -620 -100 440 0 0 1 0 1 0 -1 0 0 3001.dat
1 71 -560 -124 380 1 0 0 0 1 0 0 0 1 3001.dat
1 71 -500 -124 400 0 0 1 0 1 0 -1 0 0 3001.dat
1 71 -500 -124 480 0 0 1 0 1 0 -1 0 0 3001.dat
1 71 -560 -124 500 1 0 0 0 1 0 0 0 1 3001.dat
1 71 -620 -124 400 0 0 1 0 1 0 -1 0 0 3001.dat
1 71 -620 -124 480 0 0 1 0 1 0 -1 0 0 3001.dat
1 71 -600 -148 380 1 0 0 0 1 0 0 0 1 3001.dat
1 71 -520 -148 380 1 0 0 0 1 0 0 0 1 3001.dat
1 71 -500 -148 440 0 0 1 0 1 0 -1 0 0 3001.dat
1 71 -600 -148 500 1 0 0 0 1 0 0 0 1 3001.dat
1 71 -520 -148 500 1 0 0 0 1 0 0 0 1 3001.dat
1 71 -620 -148 440 0 0 1 0 1 0 -1 0 0 3001.dat
1 71 -560 -172 380 1 0 0 0 1 0 0 0 1 3001.dat
1 71 -500 -172 400 0 0 1 0 1 0 -1 0 0 3001.dat
1 71 -500 -172 480 0 0 1 0 1 0 -1 0 0 3001.dat
1 71 -560 -172 500 1 0 0 0 1 0 0 0 1 3001.dat
1 71 -620 -172 400 0 0 1 0 1 0 -1 0 0 3001.dat
1 71 -620 -172 480 0 0 1 0 1 0 -1 0 0 3001.dat
1 71 520 -4 380 1 0 0 0 1 0 0 0 1 3001.dat
1 71 600 -4 380 1 0 0 0 1 0 0 0 1 3001.dat
1 71 620 -4 440 0 0 1 0 1 0 -1 0 0 3001.dat
1 71 520 -4 500 1 0 0 0 1 0 0 0 1 3001.dat
1 71 600 -4 500 1 0 0 0 1 0 0 0 1 3001.dat
1 71 500 -4 440 0 0 1 0 1 0 -1 0 0 3001.dat
1 71 560 -28 380 1 0 0 0 1 0 0 0 1 3001.dat
1 71 620 -28 400 0 0 1 0 1 0 -1 0 0 3001.dat
1 71 620 -28 480 0 0 1 0 1 0 -1 0 0 3001.dat
1 71 560 -28 500 1 0 0 0 1 0 0 0 1 3001.dat
1 71 500 -28 400 0 0 1 0 1 0 -1 0 0 3001.dat
1 71 500 -28 480 0 0 1 0 1 0 -1 0 0 3001.dat
1 71 520 -52 380 1 0 0 0 1 0 0 0 1 3001.dat
1 71 600 -52 380 1 0 0 0 1 0 0 0 1 3001.dat
1 71 620 -52 440 0 0 1 0 1 0 -1 0 0 3001.dat
1 71 520 -52 500 1 0 0 0 1 0 0 0 1 3001.dat
1 71 600 -52 500 1 0 0 0 1 0 0 0 1 3001.dat
1 71 500 -52 440 0 0 1 0 1 0 -1 0 0 3001.dat
1 71 560 -76 380 1 0 0 0 1 0 0 0 1 3001.dat
1 71 620 -76 400 0 0 1 0 1 0 -1 0 0 3001.dat
1 71 620 -76 480 0 0 1 0 1 0 -1 0 0 3001.dat
1 71 560 -76 500 1 0 0 0 1 0 0 0 1 3001.dat
1 71 500 -76 400 0 0 1 0 1 0 -1 0 0 3001.dat
1 71 500 -76 480 0 0 1 0 1 0 -1 0 0 3001.dat
1 71 520 -100 380 1 0 0 0 1 0 0 0 1 3001.dat
1 71 600 -100 380 1 0 0 0 1 0 0 0 1 3001.dat
1 71 620 -100 440 0 0 1 0 1 0 -1 0 0 3001.dat
1 71 520 -100 500 1 0 0 0 1 0 0 0 1 3001.dat
1 71 600 -100 500 1 0 0 0 1 0 0 0 1 3001.dat
1 71 500 -100 440 0 0 1 0 1 0 -1 0 0 3001.dat
1 71 560 -124 380 1 0 0 0 1 0 0 0 1 3001.dat
1 71 620 -124 400 0 0 1 0 1 0 -1 0 0 3001.dat
1 71 620 -124 480 0 0 1 0 1 0 -1 0 0 3001.dat
1 71 560 -124 500 1 0 0 0 1 0 0 0 1 3001.dat
1 71 500 -124 400 0 0 1 0 1 0 -1 0 0 3001.dat
1 71 500 -124 480 0 0 1 0 1 0 -1 0 0 3001.dat
1 71 520 -148 380 1 0 0 0 1 0 0 0 1 3001.dat
1 71 600 -148 380 1 0 0 0 1 0 0 0 1 3001.dat
1 71 620 -148 440 0 0 1 0 1 0 -1 0 0 3001.dat
1 71 520 -148 500 1 0 0 0 1 0 0 0 1 3001.dat
1 71 600 -148 500 1 0 0 0 1 0 0 0 1 3001.dat
1 71 500 -148 440 0 0 1 0 1 0 -1 0 0 3001.dat
1 71 560 -172 380 1 0 0 0 1 0 0 0 1 3001.dat
1 71 620 -172 400 0 0 1 0 1 0 -1 0 0 3001.dat
1 71 620 -172 480 0 0 1 0 1 0 -1 0 0 3001.dat
1 71 560 -172 500 1 0 0 0 1 0 0 0 1 3001.dat
1 71 500 -172 400 0 0 1 0 1 0 -1 0 0 3001.dat
1 71 500 -172 480 0 0 1 0 1 0 -1 0 0 3001.dat
1 71 -600 -4 -60 1 0 0 0 1 0 0 0 1 3001.dat
1 71 -520 -4 -60 1 0 0 0 1 0 0 0 1 3001.dat
1 71 -500 -4 0 0 0 1 0 1 0 -1 0 0 3001.dat
1 71 -600 -4 60 1 0 0 0 1 0 0 0 1 3001.dat
1 71 -520 -4 60 1 0 0 0 1 0 0 0 1 3001.dat
1 71 -620 -4 0 0 0 1 0 1 0 -1 0 0 3001.dat
1 71 -560 -28 -60 1 0 0 0 1 0 0 0 1 3001.dat
1 71 -500 -28 -40 0 0 1 0 1 0 -1 0 0 3001.dat
1 71 -500 -28 40 0 0 1 0 1 0 -1 0 0 3001.dat
1 71 -560 -28 60 1 0 0 0 1 0 0 0 1 3001.dat
1 71 -620 -28 -40 0 0 1 0 1 0 -1 0 0 3001.dat
1 71 -620 -28 40 0 0 1 0 1 0 -1 0 0 3001.dat
1 71 -600 -52 -60 1 0 0 0 1 0 0 0 1 3001.dat
1 71 -520 -52 -60 1 0 0 0 1 0 0 0 1 3001.dat
1 71 -500 -52 0 0 0 1 0 1 0 -1 0 0 3001.dat
1 71 -600 -52 60 1 0 0 0 1 0 0 0 1 3001.dat
1 71 -520 -52 60 1 0 0 0 1 0 0 0 1 3001.dat
1 71 -620 -52 0 0 0 1 0 1 0 -1 0 0 3001.dat
1 71 -560 -76 -60 1 0 0 0 1 0 0 0 1 3001.dat
1 71 -500 -76 -40 0 0 1 0 1 0 -1 0 0 3001.dat
1 71 -500 -76 40 0 0 1 0 1 0 -1 0 0 3001.dat
1 71 -560 -76 60 1 0 0 0 1 0 0 0 1 3001.dat
1 71 -620 -76 -40 0 0 1 0 1 0 -1 0 0 3001.dat
1 71 -620 -76 40 0 0 1 0 1 0 -1 0 0 3001.dat
1 71 -600 -100 -60 1 0 0 0 1 0 0 0 1 3001.dat
1 71 -520 -100 -60 1 0 0 0 1 0 0 0 1 3001.dat
1 71 -500 -100 0 0 0 1 0 1 0 -1 0 0 3001.dat
1 71 -600 -100 60 1 0 0 0 1 0 0 0 1 3001.dat
1 71 -520 -100 60 1 0 0 0 1 0 0 0 1 3001.dat
1 71 -620 -100 0 0 0 1 0 1 0 -1 0 0 3001.dat
1 71 -560 -124 -60 1 0 0 0 1 0 0 0 1 3001.dat
1 71 -500 -124 -40 0 0 1 0 1 0 -1 0 0 3001.dat
1 71 -500 -124 40 0 0 1 0 1 0 -1 0 0 3001.dat
1 71 -560 -124 60 1 0 0 0 1 0 0 0 1 3001.dat
1 71 -620 -124 -40 0 0 1 0 1 0 -1 0 0 3001.dat
1 71 -620 -124 40 0 0 1 0 1 0 -1 0 0 3001.dat
1 71 -600 -148 -60 1 0 0 0 1 0 0 0 1 3001.dat
1 71 -520 -148 -60 1 0 0 0 1 0 0 0 1 3001.dat
1 71 -500 -148 0 0 0 1 0 1 0 -1 0 0 3001.dat
1 71 -600 -148 60 1 0 0 0 1 0 0 0 1 3001.dat
1 71 -520 -148 60 1 0 0 0 1 0 0 0 1 3001.dat
1 71 -620 -148 0 0 0 1 0 1 0 -1 0 0 3001.dat
1 71 520 -4 -60 1 0 0 0 1 0 0 0 1 3001.dat
1 71 600 -4 -60 1 0 0 0 1 0 0 0 1 3001.dat
1 71 620 -4 0 0 0 1 0 1 0 -1 0 0 3001.dat
1 71 520 -4 60 1 0 0 0 1 0 0 0 1 3001.dat
1 71 600 -4 60 1 0 0 0 1 0 0 0 1 3001.dat
1 71 500 -4 0 0 0 1 0 1 0 -1 0 0 3001.dat
1 71 560 -28 -60 1 0 0 0 1 0 0 0 1 3001.dat
1 71 620 -28 -40 0 0 1 0 1 0 -1 0 0 3001.dat
1 71 620 -28 40 0 0 1 0 1 0 -1 0 0 3001.dat
1 71 560 -28 60 1 0 0 0 1 0 0 0 1 3001.dat
1 71 500 -28 -40 0 0 1 0 1 0 -1 0 0 3001.dat
1 71 500 -28 40 0 0 1 0 1 0 -1 0 0 3001.dat
1 71 520 -52 -60 1 0 0 0 1 0 0 0 1 3001.dat
1 71 600 -52 -60 1 0 0 0 1 0 0 0 1 3001.dat
1 71 620 -52 0 0 0 1 0 1 0 -1 0 0 3001.dat
1 71 520 -52 60 1 0 0 0 1 0 0 0 1 3001.dat
1 71 600 -52 60 1 0 0 0 1 0 0 0 1 3001.dat
1 71 500 -52 0 0 0 1 0 1 0 -1 0 0 3001.dat
1 71 560 -76 -60 1 0 0 0 1 0 0 0 1 3001.dat
1 71 620 -76 -40 0 0 1 0 1 0 -1 0 0 3001.dat
1 71 620 -76 40 0 0 1 0 1 0 -1 0 0 3001.dat
1 71 560 -76 60 1 0 0 0 1 0 0 0 1 3001.dat
1 71 500 -76 -40 0 0 1 0 1 0 -1 0 0 3001.dat
1 71 500 -76 40 0 0 1 0 1 0 -1 0 0 3001.dat
1 71 520 -100 -60 1 0 0 0 1 0 0 0 1 3001.dat
1 71 600 -100 -60 1 0 0 0 1 0 0 0 1 3001.dat
1 71 620 -100 0 0 0 1 0 1 0 -1 0 0 3001.dat
1 71 520 -100 60 1 0 0 0 1 0 0 0 1 3001.dat
1 71 600 -100 60 1 0 0 0 1 0 0 0 1 3001.dat
1 71 500 -100 0 0 0 1 0 1 0 -1 0 0 3001.dat
1 71 560 -124 -60 1 0 0 0 1 0 0 0 1 3001.dat
1 71 620 -124 -40 0 0 1 0 1 0 -1 0 0 3001.dat
1 71 620 -124 40 0 0 1 0 1 0 -1 0 0 3001.dat
1 71 560 -124 60 1 0 0 0 1 0 0 0 1 3001.dat
1 71 500 -124 -40 0 0 1 0 1 0 -1 0 0 3001.dat
1 71 500 -124 40 0 0 1 0 1 0 -1 0 0 3001.dat
1 71 520 -148 -60 1 0 0 0 1 0 0 0 1 3001.dat
1 71 600 -148 -60 1 0 0 0 1 0 0 0 1 3001.dat
1 71 620 -148 0 0 0 1 0 1 0 -1 0 0 3001.dat
1 71 520 -148 60 1 0 0 0 1 0 0 0 1 3001.dat
1 71 600 -148 60 1 0 0 0 1 0 0 0 1 3001.dat
1 71 500 -148 0 0 0 1 0 1 0 -1 0 0 3001.dat
1 71 -60 -4 -520 1 0 0 0 1 0 0 0 1 3003.dat
1 71 60 -4 -520 1 0 0 0 1 0 0 0 1 3003.dat
1 71 -60 -28 -520 1 0 0 0 1 0 0 0 1 3003.dat
1 71 60 -28 -520 1 0 0 0 1 0 0 0 1 3003.dat
1 71 -50 -52 -520 1 0 0 0 1 0 0 0 1 3002.dat
1 71 50 -52 -520 1 0 0 0 1 0 0 0 1 3002.dat
1 71 -40 -76 -520 1 0 0 0 1 0 0 0 1 3001.dat
1 71 40 -76 -520 1 0 0 0 1 0 0 0 1 3001.dat
1 71 -50 -100 -520 1 0 0 0 1 0 0 0 1 3002.dat
1 71 10 -100 -520 1 0 0 0 1 0 0 0 1 3002.dat
1 71 60 -100 -520 1 0 0 0 1 0 0 0 1 3003.dat
1 71 -40 -124 -520 1 0 0 0 1 0 0 0 1 3001.dat
1 71 40 -124 -520 1 0 0 0 1 0 0 0 1 3001.dat
1 71 -50 -148 -520 1 0 0 0 1 0 0 0 1 3002.dat
1 71 10 -148 -520 1 0 0 0 1 0 0 0 1 3002.dat
1 71 60 -148 -520 1 0 0 0 1 0 0 0 1 3003.dat
1 71 -40 -172 -520 1 0 0 0 1 0 0 0 1 3001.dat
1 71 40 -172 -520 1 0 0 0 1 0 0 0 1 3001.dat
1 71 -60 -4 -360 1 0 0 0 1 0 0 0 1 3003.dat
1 71 60 -4 -360 1 0 0 0 1 0 0 0 1 3003.dat
1 71 -60 -28 -360 1 0 0 0 1 0 0 0 1 3003.dat
1 71 60 -28 -360 1 0 0 0 1 0 0 0 1 3003.dat
1 71 -50 -52 -360 1 0 0 0 1 0 0 0 1 3002.dat
1 71 50 -52 -360 1 0 0 0 1 0 0 0 1 3002.dat
1 71 -40 -76 -360 1 0 0 0 1 0 0 0 1 3001.dat
1 71 40 -76 -360 1 0 0 0 1 0 0 0 1 3001.dat
1 71 -50 -100 -360 1 0 0 0 1 0 0 0 1 3002.dat
1 71 10 -100 -360 1 0 0 0 1 0 0 0 1 3002.dat
1 71 60 -100 -360 1 0 0 0 1 0 0 0 1 3003.dat
1 71 -40 -124 -360 1 0 0 0 1 0 0 0 1 3001.dat
1 71 40 -124 -360 1 0 0 0 1 0 0 0 1 3001.dat
1 71 -50 -148 -360 1 0 0 0 1 0 0 0 1 3002.dat
1 71 10 -148 -360 1 0 0 0 1 0 0 0 1 3002.dat
1 71 60 -148 -360 1 0 0 0 1 0 0 0 1 3003.dat
1 71 -40 -172 -360 1 0 0 0 1 0 0 0 1 3001.dat
1 71 40 -172 -360 1 0 0 0 1 0 0 0 1 3001.dat
1 71 -80 -4 -460 0 0 1 0 1 0 -1 0 0 3001.dat
1 71 -80 -4 -400 0 0 1 0 1 0 -1 0 0 3003.dat
1 71 -80 -28 -470 0 0 1 0 1 0 -1 0 0 3002.dat
1 71 -80 -28 -410 0 0 1 0 1 0 -1 0 0 3002.dat
1 71 -80 -52 -460 0 0 1 0 1 0 -1 0 0 3001.dat
1 71 -80 -52 -400 0 0 1 0 1 0 -1 0 0 3003.dat
1 71 -80 -76 -470 0 0 1 0 1 0 -1 0 0 3002.dat
1 71 -80 -76 -410 0 0 1 0 1 0 -1 0 0 3002.dat
1 71 -80 -100 -460 0 0 1 0 1 0 -1 0 0 3001.dat
1 71 -80 -100 -400 0 0 1 0 1 0 -1 0 0 3003.dat
1 71 -80 -124 -470 0 0 1 0 1 0 -1 0 0 3002.dat
1 71 -80 -124 -410 0 0 1 0 1 0 -1 0 0 3002.dat
1 71 -80 -148 -460 0 0 1 0 1 0 -1 0 0 3001.dat
1 71 -80 -148 -400 0 0 1 0 1 0 -1 0 0 3003.dat
1 71 -80 -172 -470 0 0 1 0 1 0 -1 0 0 3002.dat
1 71 -80 -172 -410 0 0 1 0 1 0 -1 0 0 3002.dat
1 71 80 -4 -460 0 0 1 0 1 0 -1 0 0 3001.dat
1 71 80 -4 -400 0 0 1 0 1 0 -1 0 0 3003.dat
1 71 80 -28 -470 0 0 1 0 1 0 -1 0 0 3002.dat
1 71 80 -28 -410 0 0 1 0 1 0 -1 0 0 3002.dat
1 71 80 -52 -460 0 0 1 0 1 0 -1 0 0 3001.dat
1 71 80 -52 -400 0 0 1 0 1 0 -1 0 0 3003.dat
1 71 80 -76 -470 0 0 1 0 1 0 -1 0 0 3002.dat
1 71 80 -76 -410 0 0 1 0 1 0 -1 0 0 3002.dat
1 71 80 -100 -460 0 0 1 0 1 0 -1 0 0 3001.dat
1 71 80 -100 -400 0 0 1 0 1 0 -1 0 0 3003.dat
1 71 80 -124 -470 0 0 1 0 1 0 -1 0 0 3002.dat
1 71 80 -124 -410 0 0 1 0 1 0 -1 0 0 3002.dat
1 71 80 -148 -460 0 0 1 0 1 0 -1 0 0 3001.dat
1 71 80 -148 -400 0 0 1 0 1 0 -1 0 0 3003.dat
1 71 80 -172 -470 0 0 1 0 1 0 -1 0 0 3002.dat
1 71 80 -172 -410 0 0 1 0 1 0 -1 0 0 3002.dat
1 71 -60 -4 520 1 0 0 0 1 0 0 0 1 3003.dat
1 71 60 -4 520 1 0 0 0 1 0 0 0 1 3003.dat
1 71 -60 -28 520 1 0 0 0 1 0 0 0 1 3003.dat
1 71 60 -28 520 1 0 0 0 1 0 0 0 1 3003.dat
1 71 -50 -52 520 1 0 0 0 1 0 0 0 1 3002.dat
1 71 50 -52 520 1 0 0 0 1 0 0 0 1 3002.dat
1 71 -40 -76 520 1 0 0 0 1 0 0 0 1 3001.dat
1 71 40 -76 520 1 0 0 0 1 0 0 0 1 3001.dat
1 71 -50 -100 520 1 0 0 0 1 0 0 0 1 3002.dat
1 71 10 -100 520 1 0 0 0 1 0 0 0 1 3002.dat
1 71 60 -100 520 1 0 0 0 1 0 0 0 1 3003.dat
1 71 -40 -124 520 1 0 0 0 1 0 0 0 1 3001.dat
1 71 40 -124 520 1 0 0 0 1 0 0 0 1 3001.dat
1 71 -50 -148 520 1 0 0 0 1 0 0 0 1 3002.dat
1 71 10 -148 520 1 0 0 0 1 0 0 0 1 3002.dat
1 71 60 -148 520 1 0 0 0 1 0 0 0 1 3003.dat
1 71 -40 -172 520 1 0 0 0 1 0 0 0 1 3001.dat
1 71 40 -172 520 1 0 0 0 1 0 0 0 1 3001.dat
1 71 -60 -4 360 1 0 0 0 1 0 0 0 1 3003.dat
1 71 60 -4 360 1 0 0 0 1 0 0 0 1 3003.dat
1 71 -60 -28 360 1 0 0 0 1 0 0 0 1 3003.dat
1 71 60 -28 360 1 0 0 0 1 0 0 0 1 3003.dat
1 71 -50 -52 360 1 0 0 0 1 0 0 0 1 3002.dat
1 71 50 -52 360 1 0 0 0 1 0 0 0 1 3002.dat
1 71 -40 -76 360 1 0 0 0 1 0 0 0 1 3001.dat
1 71 40 -76 360 1 0 0 0 1 0 0 0 1 3001.dat
1 71 -50 -100 360 1 0 0 0 1 0 0 0 1 3002.dat
1 71 10 -100 360 1 0 0 0 1 0 0 0 1 3002.dat
1 71 60 -100 360 1 0 0 0 1 0 0 0 1 3003.dat
1 71 -40 -124 360 1 0 0 0 1 0 0 0 1 3001.dat
1 71 40 -124 360 1 0 0 0 1 0 0 0 1 3001.dat
1 71 -50 -148 360 1 0 0 0 1 0 0 0 1 3002.dat
1 71 10 -148 360 1 0 0 0 1 0 0 0 1 3002.dat
1 71 60 -148 360 1 0 0 0 1 0 0 0 1 3003.dat
1 71 -40 -172 360 1 0 0 0 1 0 0 0 1 3001.dat
1 71 40 -172 360 1 0 0 0 1 0 0 0 1 3001.dat
1 71 -80 -4 420 0 0 1 0 1 0 -1 0 0 3001.dat
1 71 -80 -4 480 0 0 1 0 1 0 -1 0 0 3003.dat
1 71 -80 -28 410 0 0 1 0 1 0 -1 0 0 3002.dat
1 71 -80 -28 470 0 0 1 0 1 0 -1 0 0 3002.dat
1 71 -80 -52 420 0 0 1 0 1 0 -1 0 0 3001.dat
1 71 -80 -52 480 0 0 1 0 1 0 -1 0 0 3003.dat
1 71 -80 -76 410 0 0 1 0 1 0 -1 0 0 3002.dat
1 71 -80 -76 470 0 0 1 0 1 0 -1 0 0 3002.dat
1 71 -80 -100 420 0 0 1 0 1 0 -1 0 0 3001.dat
1 71 -80 -100 480 0 0 1 0 1 0 -1 0 0 3003.dat
1 71 -80 -124 410 0 0 1 0 1 0 -1 0 0 3002.dat
1 71 -80 -124 470 0 0 1 0 1 0 -1 0 0 3002.dat
1 71 -80 -148 420 0 0 1 0 1 0 -1 0 0 3001.dat
1 71 -80 -148 480 0 0 1 0 1 0 -1 0 0 3003.dat
1 71 -80 -172 410 0 0 1 0 1 0 -1 0 0 3002.dat
1 71 -80 -172 470 0 0 1 0 1 0 -1 0 0 3002.dat
1 71 80 -4 420 0 0 1 0 1 0 -1 0 0 3001.dat
1 71 80 -4 480 0 0 1 0 1 0 -1 0 0 3003.dat
1 71 80 -28 410 0 0 1 0 1 0 -1 0 0 3002.dat
1 71 80 -28 470 0 0 1 0 1 0 -1 0 0 3002.dat
1 71 80 -52 420 0 0 1 0 1 0 -1 0 0 3001.dat
1 71 80 -52 480 0 0 1 0 1 0 -1 0 0 3003.dat
1 71 80 -76 410 0 0 1 0 1 0 -1 0 0 3002.dat
1 71 80 -76 470 0 0 1 0 1 0 -1 0 0 3002.dat
1 71 80 -100 420 0 0 1 0 1 0 -1 0 0 3001.dat
1 71 80 -100 480 0 0 1 0 1 0 -1 0 0 3003.dat
1 71 80 -124 410 0 0 1 0 1 0 -1 0 0 3002.dat
1 71 80 -124 470 0 0 1 0 1 0 -1 0 0 3002.dat
1 71 80 -148 420 0 0 1 0 1 0 -1 0 0 3001.dat
1 71 80 -148 480 0 0 1 0 1 0 -1 0 0 3003.dat
1 71 80 -172 410 0 0 1 0 1 0 -1 0 0 3002.dat
1 71 80 -172 470 0 0 1 0 1 0 -1 0 0 3002.dat
1 71 -420 -4 -440 1 0 0 0 1 0 0 0 1 3001.dat
1 71 -340 -4 -440 1 0 0 0 1 0 0 0 1 3001.dat
1 71 -260 -4 -440 1 0 0 0 1 0 0 0 1 3001.dat
1 71 -180 -4 -440 1 0 0 0 1 0 0 0 1 3001.dat
1 71 -120 -4 -440 1 0 0 0 1 0 0 0 1 3003.dat
1 71 -430 -28 -440 1 0 0 0 1 0 0 0 1 3002.dat
1 71 -360 -28 -440 1 0 0 0 1 0 0 0 1 3001.dat
1 71 -280 -28 -440 1 0 0 0 1 0 0 0 1 3001.dat
1 71 -200 -28 -440 1 0 0 0 1 0 0 0 1 3001.dat
1 71 -130 -28 -440 1 0 0 0 1 0 0 0 1 3002.dat
1 71 -420 -52 -440 1 0 0 0 1 0 0 0 1 3001.dat
1 71 -340 -52 -440 1 0 0 0 1 0 0 0 1 3001.dat
1 71 -260 -52 -440 1 0 0 0 1 0 0 0 1 3001.dat
1 71 -180 -52 -440 1 0 0 0 1 0 0 0 1 3001.dat
1 71 -120 -52 -440 1 0 0 0 1 0 0 0 1 3003.dat
1 71 -430 -76 -440 1 0 0 0 1 0 0 0 1 3002.dat
1 71 -360 -76 -440 1 0 0 0 1 0 0 0 1 3001.dat
1 71 -280 -76 -440 1 0 0 0 1 0 0 0 1 3001.dat
1 71 -200 -76 -440 1 0 0 0 1 0 0 0 1 3001.dat
1 71 -130 -76 -440 1 0 0 0 1 0 0 0 1 3002.dat
1 71 -420 -100 -440 1 0 0 0 1 0 0 0 1 3001.dat
1 71 -340 -100 -440 1 0 0 0 1 0 0 0 1 3001.dat
1 71 -260 -100 -440 1 0 0 0 1 0 0 0 1 3001.dat
1 71 -180 -100 -440 1 0 0 0 1 0 0 0 1 3001.dat
1 71 -120 -100 -440 1 0 0 0 1 0 0 0 1 3003.dat
1 71 140 -4 -440 1 0 0 0 1 0 0 0 1 3001.dat
1 71 220 -4 -440 1 0 0 0 1 0 0 0 1 3001.dat
1 71 300 -4 -440 1 0 0 0 1 0 0 0 1 3001.dat
1 71 380 -4 -440 1 0 0 0 1 0 0 0 1 3001.dat
1 71 440 -4 -440 1 0 0 0 1 0 0 0 1 3003.dat
1 71 130 -28 -440 1 0 0 0 1 0 0 0 1 3002.dat
1 71 200 -28 -440 1 0 0 0 1 0 0 0 1 3001.dat
1 71 280 -28 -440 1 0 0 0 1 0 0 0 1 3001.dat
1 71 360 -28 -440 1 0 0 0 1 0 0 0 1 3001.dat
1 71 430 -28 -440 1 0 0 0 1 0 0 0 1 3002.dat
1 71 140 -52 -440 1 0 0 0 1 0 0 0 1 3001.dat
1 71 220 -52 -440 1 0 0 0 1 0 0 0 1 3001.dat
1 71 300 -52 -440 1 0 0 0 1 0 0 0 1 3001.dat
1 71 380 -52 -440 1 0 0 0 1 0 0 0 1 3001.dat
1 71 440 -52 -440 1 0 0 0 1 0 0 0 1 3003.dat
1 71 130 -76 -440 1 0 0 0 1 0 0 0 1 3002.dat
1 71 200 -76 -440 1 0 0 0 1 0 0 0 1 3001.dat
1 71 280 -76 -440 1 0 0 0 1 0 0 0 1 3001.dat
1 71 360 -76 -440 1 0 0 0 1 0 0 0 1 3001.dat
1 71 430 -76 -440 1 0 0 0 1 0 0 0 1 3002.dat
1 71 140 -100 -440 1 0 0 0 1 0 0 0 1 3001.dat
1 71 220 -100 -440 1 0 0 0 1 0 0 0 1 3001.dat
1 71 300 -100 -440 1 0 0 0 1 0 0 0 1 3001.dat
1 71 380 -100 -440 1 0 0 0 1 0 0 0 1 3001.dat
1 71 440 -100 -440 1 0 0 0 1 0 0 0 1 3003.dat
1 71 -420 -4 440 1 0 0 0 1 0 0 0 1 3001.dat
1 71 -340 -4 440 1 0 0 0 1 0 0 0 1 3001.dat
1 71 -260 -4 440 1 0 0 0 1 0 0 0 1 3001.dat
1 71 -180 -4 440 1 0 0 0 1 0 0 0 1 3001.dat
1 71 -120 -4 440 1 0 0 0 1 0 0 0 1 3003.dat
1 71 -430 -28 440 1 0 0 0 1 0 0 0 1 3002.dat
1 71 -360 -28 440 1 0 0 0 1 0 0 0 1 3001.dat
1 71 -280 -28 440 1 0 0 0 1 0 0 0 1 3001.dat
1 71 -200 -28 440 1 0 0 0 1 0 0 0 1 3001.dat
1 71 -130 -28 440 1 0 0 0 1 0 0 0 1 3002.dat
1 71 -420 -52 440 1 0 0 0 1 0 0 0 1 3001.dat
1 71 -340 -52 440 1 0 0 0 1 0 0 0 1 3001.dat
1 71 -260 -52 440 1 0 0 0 1 0 0 0 1 3001.dat
1 71 -180 -52 440 1 0 0 0 1 0 0 0 1 3001.dat
1 71 -120 -52 440 1 0 0 0 1 0 0 0 1 3003.dat
1 71 -430 -76 440 1 0 0 0 1 0 0 0 1 3002.dat
1 71 -360 -76 440 1 0 0 0 1 0 0 0 1 3001.dat
1 71 -280 -76 440 1 0 0 0 1 0 0 0 1 3001.dat
1 71 -200 -76 440 1 0 0 0 1 0 0 0 1 3001.dat
1 71 -130 -76 440 1 0 0 0 1 0 0 0 1 3002.dat
1 71 -420 -100 440 1 0 0 0 1 0 0 0 1 3001.dat
1 71 -340 -100 440 1 0 0 0 1 0 0 0 1 3001.dat
1 71 -260 -100 440 1 0 0 0 1 0 0 0 1 3001.dat
1 71 -180 -100 440 1 0 0 0 1 0 0 0 1 3001.dat
1 71 -120 -100 440 1 0 0 0 1 0 0 0 1 3003.dat
1 71 140 -4 440 1 0 0 0 1 0 0 0 1 3001.dat
1 71 220 -4 440 1 0 0 0 1 0 0 0 1 3001.dat
1 71 300 -4 440 1 0 0 0 1 0 0 0 1 3001.dat
1 71 380 -4 440 1 0 0 0 1 0 0 0 1 3001.dat
1 71 440 -4 440 1 0 0 0 1 0 0 0 1 3003.dat
1 71 130 -28 440 1 0 0 0 1 0 0 0 1 3002.dat
1 71 200 -28 440 1 0 0 0 1 0 0 0 1 3001.dat
1 71 280 -28 440 1 0 0 0 1 0 0 0 1 3001.dat
1 71 360 -28 440 1 0 0 0 1 0 0 0 1 3001.dat
1 71 430 -28 440 1 0 0 0 1 0 0 0 1 3002.dat
1 71 140 -52 440 1 0 0 0 1 0 0 0 1 3001.dat
1 71 220 -52 440 1 0 0 0 1 0 0 0 1 3001.dat
1 71 300 -52 440 1 0 0 0 1 0 0 0 1 3001.dat
1 71 380 -52 440 1 0 0 0 1 0 0 0 1 3001.dat
1 71 440 -52 440 1 0 0 0 1 0 0 0 1 3003.dat
1 71 130 -76 440 1 0 0 0 1 0 0 0 1 3002.dat
1 71 200 -76 440 1 0 0 0 1 0 0 0 1 3001.dat
1 71 280 -76 440 1 0 0 0 1 0 0 0 1 3001.dat
1 71 360 -76 440 1 0 0 0 1 0 0 0 1 3001.dat
1 71 430 -76 440 1 0 0 0 1 0 0 0 1 3002.dat
1 71 140 -100 440 1 0 0 0 1 0 0 0 1 3001.dat
1 71 220 -100 440 1 0 0 0 1 0 0 0 1 3001.dat
1 71 300 -100 440 1 0 0 0 1 0 0 0 1 3001.dat
1 71 380 -100 440 1 0 0 0 1 0 0 0 1 3001.dat
1 71 440 -100 440 1 0 0 0 1 0 0 0 1 3003.dat
1 71 -560 -4 -300 0 0 1 0 1 0 -1 0 0 3001.dat
1 71 -560 -4 -220 0 0 1 0 1 0 -1 0 0 3001.dat
1 71 -560 -4 -140 0 0 1 0 1 0 -1 0 0 3001.dat
1 71 -560 -28 -310 0 0 1 0 1 0 -1 0 0 3002.dat
1 71 -560 -28 -240 0 0 1 0 1 0 -1 0 0 3001.dat
1 71 -560 -28 -170 0 0 1 0 1 0 -1 0 0 3002.dat
1 71 -560 -28 -120 0 0 1 0 1 0 -1 0 0 3003.dat
1 71 -560 -52 -300 0 0 1 0 1 0 -1 0 0 3001.dat
1 71 -560 -52 -220 0 0 1 0 1 0 -1 0 0 3001.dat
1 71 -560 -52 -140 0 0 1 0 1 0 -1 0 0 3001.dat
1 71 -560 -76 -310 0 0 1 0 1 0 -1 0 0 3002.dat
1 71 -560 -76 -240 0 0 1 0 1 0 -1 0 0 3001.dat
1 71 -560 -76 -170 0 0 1 0 1 0 -1 0 0 3002.dat
1 71 -560 -76 -120 0 0 1 0 1 0 -1 0 0 3003.dat
1 71 -560 -100 -300 0 0 1 0 1 0 -1 0 0 3001.dat
1 71 -560 -100 -220 0 0 1 0 1 0 -1 0 0 3001.dat
1 71 -560 -100 -140 0 0 1 0 1 0 -1 0 0 3001.dat
1 71 -560 -4 140 0 0 1 0 1 0 -1 0 0 3001.dat
1 71 -560 -4 220 0 0 1 0 1 0 -1 0 0 3001.dat
1 71 -560 -4 300 0 0 1 0 1 0 -1 0 0 3001.dat
1 71 -560 -28 130 0 0 1 0 1 0 -1 0 0 3002.dat
1 71 -560 -28 200 0 0 1 0 1 0 -1 0 0 3001.dat
1 71 -560 -28 270 0 0 1 0 1 0 -1 0 0 3002.dat
1 71 -560 -28 320 0 0 1 0 1 0 -1 0 0 3003.dat
1 71 -560 -52 140 0 0 1 0 1 0 -1 0 0 3001.dat
1 71 -560 -52 220 0 0 1 0 1 0 -1 0 0 3001.dat
1 71 -560 -52 300 0 0 1 0 1 0 -1 0 0 3001.dat
1 71 -560 -76 130 0 0 1 0 1 0 -1 0 0 3002.dat
1 71 -560 -76 200 0 0 1 0 1 0 -1 0 0 3001.dat
1 71 -560 -76 270 0 0 1 0 1 0 -1 0 0 3002.dat
1 71 -560 -76 320 0 0 1 0 1 0 -1 0 0 3003.dat
1 71 -560 -100 140 0 0 1 0 1 0 -1 0 0 3001.dat
1 71 -560 -100 220 0 0 1 0 1 0 -1 0 0 3001.dat
1 71 -560 -100 300 0 0 1 0 1 0 -1 0 0 3001.dat
1 71 560 -4 -300 0 0 1 0 1 0 -1 0 0 3001.dat
1 71 560 -4 -220 0 0 1 0 1 0 -1 0 0 3001.dat
1 71 560 -4 -140 0 0 1 0 1 0 -1 0 0 3001.dat
1 71 560 -28 -310 0 0 1 0 1 0 -1 0 0 3002.dat
1 71 560 -28 -240 0 0 1 0 1 0 -1 0 0 3001.dat
1 71 560 -28 -170 0 0 1 0 1 0 -1 0 0 3002.dat
1 71 560 -28 -120 0 0 1 0 1 0 -1 0 0 3003.dat
1 71 560 -52 -300 0 0 1 0 1 0 -1 0 0 3001.dat
1 71 560 -52 -220 0 0 1 0 1 0 -1 0 0 3001.dat
1 71 560 -52 -140 0 0 1 0 1 0 -1 0 0 3001.dat
1 71 560 -76 -310 0 0 1 0 1 0 -1 0 0 3002.dat
1 71 560 -76 -240 0 0 1 0 1 0 -1 0 0 3001.dat
1 71 560 -76 -170 0 0 1 0 1 0 -1 0 0 3002.dat
1 71 560 -76 -120 0 0 1 0 1 0 -1 0 0 3003.dat
1 71 560 -100 -300 0 0 1 0 1 0 -1 0 0 3001.dat
1 71 560 -100 -220 0 0 1 0 1 0 -1 0 0 3001.dat
1 71 560 -100 -140 0 0 1 0 1 0 -1 0 0 3001.dat
1 71 560 -4 140 0 0 1 0 1 0 -1 0 0 3001.dat
1 71 560 -4 220 0 0 1 0 1 0 -1 0 0 3001.dat
1 71 560 -4 300 0 0 1 0 1 0 -1 0 0 3001.dat
1 71 560 -28 130 0 0 1 0 1 0 -1 0 0 3002.dat
1 71 560 -28 200 0 0 1 0 1 0 -1 0 0 3001.dat
1 71 560 -28 270 0 0 1 0 1 0 -1 0 0 3002.dat
1 71 560 -28 320 0 0 1 0 1 0 -1 0 0 3003.dat
1 71 560 -52 140 0 0 1 0 1 0 -1 0 0 3001.dat
1 71 560 -52 220 0 0 1 0 1 0 -1 0 0 3001.dat
1 71 560 -52 300 0 0 1 0 1 0 -1 0 0 3001.dat
1 71 560 -76 130 0 0 1 0 1 0 -1 0 0 3002.dat
1 71 560 -76 200 0 0 1 0 1 0 -1 0 0 3001.dat
1 71 560 -76 270 0 0 1 0 1 0 -1 0 0 3002.dat
1 71 560 -76 320 0 0 1 0 1 0 -1 0 0 3003.dat
1 71 560 -100 140 0 0 1 0 1 0 -1 0 0 3001.dat
1 71 560 -100 220 0 0 1 0 1 0 -1 0 0 3001.dat
1 71 560 -100 300 0 0 1 0 1 0 -1 0 0 3001.dat
1 72 -440 -124 -440 1 0 0 0 1 0 0 0 1 3003.dat
1 72 -360 -124 -440 1 0 0 0 1 0 0 0 1 3003.dat
1 72 -280 -124 -440 1 0 0 0 1 0 0 0 1 3003.dat
1 72 -200 -124 -440 1 0 0 0 1 0 0 0 1 3003.dat
1 72 -120 -124 -440 1 0 0 0 1 0 0 0 1 3003.dat
1 72 120 -124 -440 1 0 0 0 1 0 0 0 1 3003.dat
1 72 200 -124 -440 1 0 0 0 1 0 0 0 1 3003.dat
1 72 280 -124 -440 1 0 0 0 1 0 0 0 1 3003.dat
1 72 360 -124 -440 1 0 0 0 1 0 0 0 1 3003.dat
1 72 440 -124 -440 1 0 0 0 1 0 0 0 1 3003.dat
1 72 -440 -124 440 1 0 0 0 1 0 0 0 1 3003.dat
1 72 -360 -124 440 1 0 0 0 1 0 0 0 1 3003.dat
1 72 -280 -124 440 1 0 0 0 1 0 0 0 1 3003.dat
1 72 -200 -124 440 1 0 0 0 1 0 0 0 1 3003.dat
1 72 -120 -124 440 1 0 0 0 1 0 0 0 1 3003.dat
1 72 120 -124 440 1 0 0 0 1 0 0 0 1 3003.dat
1 72 200 -124 440 1 0 0 0 1 0 0 0 1 3003.dat
1 72 280 -124 440 1 0 0 0 1 0 0 0 1 3003.dat
1 72 360 -124 440 1 0 0 0 1 0 0 0 1 3003.dat
1 72 440 -124 440 1 0 0 0 1 0 0 0 1 3003.dat
1 72 -560 -124 -320 1 0 0 0 1 0 0 0 1 3003.dat
1 72 -560 -124 -240 1 0 0 0 1 0 0 0 1 3003.dat
1 72 -560 -124 -160 1 0 0 0 1 0 0 0 1 3003.dat
1 72 -560 -124 160 1 0 0 0 1 0 0 0 1 3003.dat
1 72 -560 -124 240 1 0 0 0 1 0 0 0 1 3003.dat
1 72 -560 -124 320 1 0 0 0 1 0 0 0 1 3003.dat
1 72 560 -124 -320 1 0 0 0 1 0 0 0 1 3003.dat
1 72 560 -124 -240 1 0 0 0 1 0 0 0 1 3003.dat
1 72 560 -124 -160 1 0 0 0 1 0 0 0 1 3003.dat
1 72 560 -124 160 1 0 0 0 1 0 0 0 1 3003.dat
1 72 560 -124 240 1 0 0 0 1 0 0 0 1 3003.dat
1 72 560 -124 320 1 0 0 0 1 0 0 0 1 3003.dat
1 72 -640 -196 -520 1 0 0 0 1 0 0 0 1 3003.dat
1 72 -480 -196 -520 1 0 0 0 1 0 0 0 1 3003.dat
1 72 -640 -196 -360 1 0 0 0 1 0 0 0 1 3003.dat
1 72 -480 -196 -360 1 0 0 0 1 0 0 0 1 3003.dat
1 72 -560 -196 -520 1 0 0 0 1 0 0 0 1 3003.dat
1 72 -560 -196 -360 1 0 0 0 1 0 0 0 1 3003.dat
1 72 -640 -196 -440 1 0 0 0 1 0 0 0 1 3003.dat
1 72 -480 -196 -440 1 0 0 0 1 0 0 0 1 3003.dat
1 72 480 -196 -520 1 0 0 0 1 0 0 0 1 3003.dat
1 72 640 -196 -520 1 0 0 0 1 0 0 0 1 3003.dat
1 72 480 -196 -360 1 0 0 0 1 0 0 0 1 3003.dat
1 72 640 -196 -360 1 0 0 0 1 0 0 0 1 3003.dat
1 72 560 -196 -520 1 0 0 0 1 0 0 0 1 3003.dat
1 72 560 -196 -360 1 0 0 0 1 0 0 0 1 3003.dat
1 72 480 -196 -440 1 0 0 0 1 0 0 0 1 3003.dat
1 72 640 -196 -440 1 0 0 0 1 0 0 0 1 3003.dat
1 72 -640 -196 360 1 0 0 0 1 0 0 0 1 3003.dat
1 72 -480 -196 360 1 0 0 0 1 0 0 0 1 3003.dat
1 72 -640 -196 520 1 0 0 0 1 0 0 0 1 3003.dat
1 72 -480 -196 520 1 0 0 0 1 0 0 0 1 3003.dat
1 72 -560 -196 360 1 0 0 0 1 0 0 0 1 3003.dat
1 72 -560 -196 520 1 0 0 0 1 0 0 0 1 3003.dat
1 72 -640 -196 440 1 0 0 0 1 0 0 0 1 3003.dat
1 72 -480 -196 440 1 0 0 0 1 0 0 0 1 3003.dat
1 72 480 -196 360 1 0 0 0 1 0 0 0 1 3003.dat
1 72 640 -196 360 1 0 0 0 1 0 0 0 1 3003.dat
1 72 480 -196 520 1 0 0 0 1 0 0 0 1 3003.dat
1 72 640 -196 520 1 0 0 0 1 0 0 0 1 3003.dat
1 72 560 -196 360 1 0 0 0 1 0 0 0 1 3003.dat
1 72 560 -196 520 1 0 0 0 1 0 0 0 1 3003.dat
1 72 480 -196 440 1 0 0 0 1 0 0 0 1 3003.dat
1 72 640 -196 440 1 0 0 0 1 0 0 0 1 3003.dat
1 72 -640 -172 -80 1 0 0 0 1 0 0 0 1 3003.dat
1 72 -480 -172 -80 1 0 0 0 1 0 0 0 1 3003.dat
1 72 -640 -172 80 1 0 0 0 1 0 0 0 1 3003.dat
1 72 -480 -172 80 1 0 0 0 1 0 0 0 1 3003.dat
1 72 -560 -172 -80 1 0 0 0 1 0 0 0 1 3003.dat
1 72 -560 -172 80 1 0 0 0 1 0 0 0 1 3003.dat
1 72 480 -172 -80 1 0 0 0 1 0 0 0 1 3003.dat
1 72 640 -172 -80 1 0 0 0 1 0 0 0 1 3003.dat
1 72 480 -172 80 1 0 0 0 1 0 0 0 1 3003.dat
1 72 640 -172 80 1 0 0 0 1 0 0 0 1 3003.dat
1 72 560 -172 -80 1 0 0 0 1 0 0 0 1 3003.dat
1 72 560 -172 80 1 0 0 0 1 0 0 0 1 3003.dat
1 72 -80 -196 -520 1 0 0 0 1 0 0 0 1 3003.dat
1 72 0 -196 -520 1 0 0 0 1 0 0 0 1 3003.dat
1 72 80 -196 -520 1 0 0 0 1 0 0 0 1 3003.dat
1 72 -80 -196 520 1 0 0 0 1 0 0 0 1 3003.dat
1 72 0 -196 520 1 0 0 0 1 0 0 0 1 3003.dat
1 72 80 -196 520 1 0 0 0 1 0 0 0 1 3003.dat
1 19 -120 -4 40 1 0 0 0 1 0 0 0 1 3001.dat
1 19 -60 -4 40 1 0 0 0 1 0 0 0 1 3003.dat
1 19 80 -4 40 1 0 0 0 1 0 0 0 1 3001.dat
1 19 140 -4 40 1 0 0 0 1 0 0 0 1 3003.dat
1 19 -130 -28 40 1 0 0 0 1 0 0 0 1 3002.dat
1 19 -70 -28 40 1 0 0 0 1 0 0 0 1 3002.dat
1 19 70 -28 40 1 0 0 0 1 0 0 0 1 3002.dat
1 19 130 -28 40 1 0 0 0 1 0 0 0 1 3002.dat
1 19 -120 -52 40 1 0 0 0 1 0 0 0 1 3001.dat
1 19 -50 -52 40 1 0 0 0 1 0 0 0 1 3002.dat
1 19 50 -52 40 1 0 0 0 1 0 0 0 1 3002.dat
1 19 120 -52 40 1 0 0 0 1 0 0 0 1 3001.dat
1 19 -130 -76 40 1 0 0 0 1 0 0 0 1 3002.dat
1 19 -60 -76 40 1 0 0 0 1 0 0 0 1 3001.dat
1 19 20 -76 40 1 0 0 0 1 0 0 0 1 3001.dat
1 19 90 -76 40 1 0 0 0 1 0 0 0 1 3002.dat
1 19 140 -76 40 1 0 0 0 1 0 0 0 1 3003.dat
1 19 -140 -100 40 1 0 0 0 1 0 0 0 1 3003.dat
1 47 -100 -100 40 1 0 0 0 1 0 0 0 1 3003.dat
1 19 -40 -100 40 1 0 0 0 1 0 0 0 1 3001.dat
1 19 40 -100 40 1 0 0 0 1 0 0 0 1 3001.dat
1 47 100 -100 40 1 0 0 0 1 0 0 0 1 3003.dat
1 19 140 -100 40 1 0 0 0 1 0 0 0 1 3003.dat
1 19 -120 -124 40 1 0 0 0 1 0 0 0 1 3001.dat
1 19 -50 -124 40 1 0 0 0 1 0 0 0 1 3002.dat
1 19 20 -124 40 1 0 0 0 1 0 0 0 1 3001.dat
1 19 90 -124 40 1 0 0 0 1 0 0 0 1 3002.dat
1 19 140 -124 40 1 0 0 0 1 0 0 0 1 3003.dat
1 19 -130 -148 40 1 0 0 0 1 0 0 0 1 3002.dat
1 19 -70 -148 40 1 0 0 0 1 0 0 0 1 3002.dat
1 19 0 -148 40 1 0 0 0 1 0 0 0 1 3001.dat
1 19 70 -148 40 1 0 0 0 1 0 0 0 1 3002.dat
1 19 130 -148 40 1 0 0 0 1 0 0 0 1 3002.dat
1 19 -120 -172 40 1 0 0 0 1 0 0 0 1 3001.dat
1 19 -40 -172 40 1 0 0 0 1 0 0 0 1 3001.dat
1 19 40 -172 40 1 0 0 0 1 0 0 0 1 3001.dat
1 19 120 -172 40 1 0 0 0 1 0 0 0 1 3001.dat
1 19 -120 -4 280 1 0 0 0 1 0 0 0 1 3001.dat
1 19 -40 -4 280 1 0 0 0 1 0 0 0 1 3001.dat
1 19 40 -4 280 1 0 0 0 1 0 0 0 1 3001.dat
1 19 120 -4 280 1 0 0 0 1 0 0 0 1 3001.dat
1 19 -130 -28 280 1 0 0 0 1 0 0 0 1 3002.dat
1 19 -60 -28 280 1 0 0 0 1 0 0 0 1 3001.dat
1 19 20 -28 280 1 0 0 0 1 0 0 0 1 3001.dat
1 19 90 -28 280 1 0 0 0 1 0 0 0 1 3002.dat
1 19 140 -28 280 1 0 0 0 1 0 0 0 1 3003.dat
1 19 -120 -52 280 1 0 0 0 1 0 0 0 1 3001.dat
1 19 -40 -52 280 1 0 0 0 1 0 0 0 1 3001.dat
1 19 40 -52 280 1 0 0 0 1 0 0 0 1 3001.dat
1 19 120 -52 280 1 0 0 0 1 0 0 0 1 3001.dat
1 19 -130 -76 280 1 0 0 0 1 0 0 0 1 3002.dat
1 19 -60 -76 280 1 0 0 0 1 0 0 0 1 3001.dat
1 19 20 -76 280 1 0 0 0 1 0 0 0 1 3001.dat
1 19 90 -76 280 1 0 0 0 1 0 0 0 1 3002.dat
1 19 140 -76 280 1 0 0 0 1 0 0 0 1 3003.dat
1 19 -120 -100 280 1 0 0 0 1 0 0 0 1 3001.dat
1 47 -60 -100 280 1 0 0 0 1 0 0 0 1 3003.dat
1 19 0 -100 280 1 0 0 0 1 0 0 0 1 3001.dat
1 47 60 -100 280 1 0 0 0 1 0 0 0 1 3003.dat
1 19 120 -100 280 1 0 0 0 1 0 0 0 1 3001.dat
1 19 -120 -124 280 1 0 0 0 1 0 0 0 1 3001.dat
1 19 -40 -124 280 1 0 0 0 1 0 0 0 1 3001.dat
1 19 40 -124 280 1 0 0 0 1 0 0 0 1 3001.dat
1 19 120 -124 280 1 0 0 0 1 0 0 0 1 3001.dat
1 19 -130 -148 280 1 0 0 0 1 0 0 0 1 3002.dat
1 19 -60 -148 280 1 0 0 0 1 0 0 0 1 3001.dat
1 19 20 -148 280 1 0 0 0 1 0 0 0 1 3001.dat
1 19 90 -148 280 1 0 0 0 1 0 0 0 1 3002.dat
1 19 140 -148 280 1 0 0 0 1 0 0 0 1 3003.dat
1 19 -120 -172 280 1 0 0 0 1 0 0 0 1 3001.dat
1 19 -40 -172 280 1 0 0 0 1 0 0 0 1 3001.dat
1 19 40 -172 280 1 0 0 0 1 0 0 0 1 3001.dat
1 19 120 -172 280 1 0 0 0 1 0 0 0 1 3001.dat
1 19 -160 -4 100 0 0 1 0 1 0 -1 0 0 3001.dat
1 19 -160 -4 180 0 0 1 0 1 0 -1 0 0 3001.dat
1 19 -160 -4 240 0 0 1 0 1 0 -1 0 0 3003.dat
1 19 -160 -28 90 0 0 1 0 1 0 -1 0 0 3002.dat
1 19 -160 -28 160 0 0 1 0 1 0 -1 0 0 3001.dat
1 19 -160 -28 230 0 0 1 0 1 0 -1 0 0 3002.dat
1 19 -160 -52 100 0 0 1 0 1 0 -1 0 0 3001.dat
1 19 -160 -52 180 0 0 1 0 1 0 -1 0 0 3001.dat
1 19 -160 -52 240 0 0 1 0 1 0 -1 0 0 3003.dat
1 19 -160 -76 90 0 0 1 0 1 0 -1 0 0 3002.dat
1 19 -160 -76 160 0 0 1 0 1 0 -1 0 0 3001.dat
1 19 -160 -76 230 0 0 1 0 1 0 -1 0 0 3002.dat
1 19 -160 -100 100 0 0 1 0 1 0 -1 0 0 3001.dat
1 19 -160 -100 180 0 0 1 0 1 0 -1 0 0 3001.dat
1 19 -160 -100 240 0 0 1 0 1 0 -1 0 0 3003.dat
1 19 -160 -124 90 0 0 1 0 1 0 -1 0 0 3002.dat
1 19 -160 -124 160 0 0 1 0 1 0 -1 0 0 3001.dat
1 19 -160 -124 230 0 0 1 0 1 0 -1 0 0 3002.dat
1 19 -160 -148 100 0 0 1 0 1 0 -1 0 0 3001.dat
1 19 -160 -148 180 0 0 1 0 1 0 -1 0 0 3001.dat
1 19 -160 -148 240 0 0 1 0 1 0 -1 0 0 3003.dat
1 19 -160 -172 90 0 0 1 0 1 0 -1 0 0 3002.dat
1 19 -160 -172 160 0 0 1 0 1 0 -1 0 0 3001.dat
1 19 -160 -172 230 0 0 1 0 1 0 -1 0 0 3002.dat
1 19 160 -4 100 0 0 1 0 1 0 -1 0 0 3001.dat
1 19 160 -4 180 0 0 1 0 1 0 -1 0 0 3001.dat
1 19 160 -4 240 0 0 1 0 1 0 -1 0 0 3003.dat
1 19 160 -28 90 0 0 1 0 1 0 -1 0 0 3002.dat
1 19 160 -28 160 0 0 1 0 1 0 -1 0 0 3001.dat
1 19 160 -28 230 0 0 1 0 1 0 -1 0 0 3002.dat
1 19 160 -52 100 0 0 1 0 1 0 -1 0 0 3001.dat
1 19 160 -52 180 0 0 1 0 1 0 -1 0 0 3001.dat
1 19 160 -52 240 0 0 1 0 1 0 -1 0 0 3003.dat
1 19 160 -76 90 0 0 1 0 1 0 -1 0 0 3002.dat
1 19 160 -76 160 0 0 1 0 1 0 -1 0 0 3001.dat
1 19 160 -76 230 0 0 1 0 1 0 -1 0 0 3002.dat
1 19 160 -100 100 0 0 1 0 1 0 -1 0 0 3001.dat
1 19 160 -100 180 0 0 1 0 1 0 -1 0 0 3001.dat
1 19 160 -100 240 0 0 1 0 1 0 -1 0 0 3003.dat
1 19 160 -124 90 0 0 1 0 1 0 -1 0 0 3002.dat
1 19 160 -124 160 0 0 1 0 1 0 -1 0 0 3001.dat
1 19 160 -124 230 0 0 1 0 1 0 -1 0 0 3002.dat
1 19 160 -148 100 0 0 1 0 1 0 -1 0 0 3001.dat
1 19 160 -148 180 0 0 1 0 1 0 -1 0 0 3001.dat
1 19 160 -148 240 0 0 1 0 1 0 -1 0 0 3003.dat
1 19 160 -172 90 0 0 1 0 1 0 -1 0 0 3002.dat
1 19 160 -172 160 0 0 1 0 1 0 -1 0 0 3001.dat
1 19 160 -172 230 0 0 1 0 1 0 -1 0 0 3002.dat
1 72 -120 -196 60 1 0 0 0 1 0 0 0 1 3001.dat
1 72 -40 -196 60 1 0 0 0 1 0 0 0 1 3001.dat
1 72 40 -196 60 1 0 0 0 1 0 0 0 1 3001.dat
1 72 120 -196 60 1 0 0 0 1 0 0 0 1 3001.dat
1 72 -120 -196 260 1 0 0 0 1 0 0 0 1 3001.dat
1 72 -40 -196 260 1 0 0 0 1 0 0 0 1 3001.dat
1 72 40 -196 260 1 0 0 0 1 0 0 0 1 3001.dat
1 72 120 -196 260 1 0 0 0 1 0 0 0 1 3001.dat
1 72 -120 -220 80 1 0 0 0 1 0 0 0 1 3001.dat
1 72 -40 -220 80 1 0 0 0 1 0 0 0 1 3001.dat
1 72 40 -220 80 1 0 0 0 1 0 0 0 1 3001.dat
1 72 120 -220 80 1 0 0 0 1 0 0 0 1 3001.dat
1 72 -120 -220 240 1 0 0 0 1 0 0 0 1 3001.dat
1 72 -40 -220 240 1 0 0 0 1 0 0 0 1 3001.dat
1 72 40 -220 240 1 0 0 0 1 0 0 0 1 3001.dat
1 72 120 -220 240 1 0 0 0 1 0 0 0 1 3001.dat
1 72 -120 -244 100 1 0 0 0 1 0 0 0 1 3001.dat
1 72 -40 -244 100 1 0 0 0 1 0 0 0 1 3001.dat
1 72 40 -244 100 1 0 0 0 1 0 0 0 1 3001.dat
1 72 120 -244 100 1 0 0 0 1 0 0 0 1 3001.dat
1 72 -120 -244 220 1 0 0 0 1 0 0 0 1 3001.dat
1 72 -40 -244 220 1 0 0 0 1 0 0 0 1 3001.dat
1 72 40 -244 220 1 0 0 0 1 0 0 0 1 3001.dat
1 72 120 -244 220 1 0 0 0 1 0 0 0 1 3001.dat
1 72 -120 -268 120 1 0 0 0 1 0 0 0 1 3001.dat
1 72 -40 -268 120 1 0 0 0 1 0 0 0 1 3001.dat
1 72 40 -268 120 1 0 0 0 1 0 0 0 1 3001.dat
1 72 120 -268 120 1 0 0 0 1 0 0 0 1 3001.dat
1 72 -120 -268 200 1 0 0 0 1 0 0 0 1 3001.dat
1 72 -40 -268 200 1 0 0 0 1 0 0 0 1 3001.dat
1 72 40 -268 200 1 0 0 0 1 0 0 0 1 3001.dat
1 72 120 -268 200 1 0 0 0 1 0 0 0 1 3001.dat
1 72 -120 -292 140 1 0 0 0 1 0 0 0 1 3001.dat
1 72 -40 -292 140 1 0 0 0 1 0 0 0 1 3001.dat
1 72 40 -292 140 1 0 0 0 1 0 0 0 1 3001.dat
1 72 120 -292 140 1 0 0 0 1 0 0 0 1 3001.dat
1 72 -120 -292 180 1 0 0 0 1 0 0 0 1 3001.dat
1 72 -40 -292 180 1 0 0 0 1 0 0 0 1 3001.dat
1 72 40 -292 180 1 0 0 0 1 0 0 0 1 3001.dat
1 72 120 -292 180 1 0 0 0 1 0 0 0 1 3001.dat
1 72 -120 -316 160 1 0 0 0 1 0 0 0 1 3001.dat
1 72 -40 -316 160 1 0 0 0 1 0 0 0 1 3001.dat
1 72 40 -316 160 1 0 0 0 1 0 0 0 1 3001.dat
1 72 120 -316 160 1 0 0 0 1 0 0 0 1 3001.dat
1 71 -320 -4 -140 1 0 0 0 1 0 0 0 1 3001.dat
1 71 -260 -4 -140 1 0 0 0 1 0 0 0 1 3003.dat
1 71 -260 -4 -100 0 0 1 0 1 0 -1 0 0 3003.dat
1 71 -320 -4 -60 1 0 0 0 1 0 0 0 1 3001.dat
1 71 -260 -4 -60 1 0 0 0 1 0 0 0 1 3003.dat
1 71 -340 -4 -100 0 0 1 0 1 0 -1 0 0 3003.dat
1 71 -300 -28 -140 1 0 0 0 1 0 0 0 1 3003.dat
1 71 -260 -28 -120 0 0 1 0 1 0 -1 0 0 3001.dat
1 71 -260 -28 -60 0 0 1 0 1 0 -1 0 0 3003.dat
1 71 -300 -28 -60 1 0 0 0 1 0 0 0 1 3003.dat
1 71 -340 -28 -120 0 0 1 0 1 0 -1 0 0 3001.dat
1 71 -340 -28 -60 0 0 1 0 1 0 -1 0 0 3003.dat
1 71 -320 -52 -140 1 0 0 0 1 0 0 0 1 3001.dat
1 71 -260 -52 -140 1 0 0 0 1 0 0 0 1 3003.dat
1 71 -260 -52 -100 0 0 1 0 1 0 -1 0 0 3003.dat
1 71 -320 -52 -60 1 0 0 0 1 0 0 0 1 3001.dat
1 71 -260 -52 -60 1 0 0 0 1 0 0 0 1 3003.dat
1 71 -340 -52 -100 0 0 1 0 1 0 -1 0 0 3003.dat
1 71 -300 -76 -140 1 0 0 0 1 0 0 0 1 3003.dat
1 71 -260 -76 -120 0 0 1 0 1 0 -1 0 0 3001.dat
1 71 -260 -76 -60 0 0 1 0 1 0 -1 0 0 3003.dat
1 71 -300 -76 -60 1 0 0 0 1 0 0 0 1 3003.dat
1 71 -340 -76 -120 0 0 1 0 1 0 -1 0 0 3001.dat
1 71 -340 -76 -60 0 0 1 0 1 0 -1 0 0 3003.dat
1 71 -320 -100 -140 1 0 0 0 1 0 0 0 1 3001.dat
1 71 -260 -100 -140 1 0 0 0 1 0 0 0 1 3003.dat
1 71 -260 -100 -100 0 0 1 0 1 0 -1 0 0 3003.dat
1 71 -320 -100 -60 1 0 0 0 1 0 0 0 1 3001.dat
1 71 -260 -100 -60 1 0 0 0 1 0 0 0 1 3003.dat
1 71 -340 -100 -100 0 0 1 0 1 0 -1 0 0 3003.dat
1 71 -300 -124 -140 1 0 0 0 1 0 0 0 1 3003.dat
1 71 -260 -124 -120 0 0 1 0 1 0 -1 0 0 3001.dat
1 71 -260 -124 -60 0 0 1 0 1 0 -1 0 0 3003.dat
1 71 -300 -124 -60 1 0 0 0 1 0 0 0 1 3003.dat
1 71 -340 -124 -120 0 0 1 0 1 0 -1 0 0 3001.dat
1 71 -340 -124 -60 0 0 1 0 1 0 -1 0 0 3003.dat
1 71 -320 -148 -140 1 0 0 0 1 0 0 0 1 3001.dat
1 71 -260 -148 -140 1 0 0 0 1 0 0 0 1 3003.dat
1 71 -260 -148 -100 0 0 1 0 1 0 -1 0 0 3003.dat
1 71 -320 -148 -60 1 0 0 0 1 0 0 0 1 3001.dat
1 71 -260 -148 -60 1 0 0 0 1 0 0 0 1 3003.dat
1 71 -340 -148 -100 0 0 1 0 1 0 -1 0 0 3003.dat
1 71 -300 -172 -140 1 0 0 0 1 0 0 0 1 3003.dat
1 71 -260 -172 -120 0 0 1 0 1 0 -1 0 0 3001.dat
1 71 -260 -172 -60 0 0 1 0 1 0 -1 0 0 3003.dat
1 71 -300 -172 -60 1 0 0 0 1 0 0 0 1 3003.dat
1 71 -340 -172 -120 0 0 1 0 1 0 -1 0 0 3001.dat
1 71 -340 -172 -60 0 0 1 0 1 0 -1 0 0 3003.dat
1 71 -320 -196 -140 1 0 0 0 1 0 0 0 1 3001.dat
1 71 -260 -196 -140 1 0 0 0 1 0 0 0 1 3003.dat
1 71 -260 -196 -100 0 0 1 0 1 0 -1 0 0 3003.dat
1 71 -320 -196 -60 1 0 0 0 1 0 0 0 1 3001.dat
1 71 -260 -196 -60 1 0 0 0 1 0 0 0 1 3003.dat
1 71 -340 -196 -100 0 0 1 0 1 0 -1 0 0 3003.dat
1 71 -300 -220 -140 1 0 0 0 1 0 0 0 1 3003.dat
1 71 -260 -220 -120 0 0 1 0 1 0 -1 0 0 3001.dat
1 71 -260 -220 -60 0 0 1 0 1 0 -1 0 0 3003.dat
1 71 -300 -220 -60 1 0 0 0 1 0 0 0 1 3003.dat
1 71 -340 -220 -120 0 0 1 0 1 0 -1 0 0 3001.dat
1 71 -340 -220 -60 0 0 1 0 1 0 -1 0 0 3003.dat
1 71 -320 -244 -140 1 0 0 0 1 0 0 0 1 3001.dat
1 71 -260 -244 -140 1 0 0 0 1 0 0 0 1 3003.dat
1 71 -260 -244 -100 0 0 1 0 1 0 -1 0 0 3003.dat
1 71 -320 -244 -60 1 0 0 0 1 0 0 0 1 3001.dat
1 71 -260 -244 -60 1 0 0 0 1 0 0 0 1 3003.dat
1 71 -340 -244 -100 0 0 1 0 1 0 -1 0 0 3003.dat
1 72 -340 -268 -140 0 0 1 0 1 0 -1 0 0 3003.dat
1 72 -340 -268 -100 0 0 1 0 1 0 -1 0 0 3003.dat
1 72 -340 -268 -60 0 0 1 0 1 0 -1 0 0 3003.dat
1 72 -260 -268 -140 0 0 1 0 1 0 -1 0 0 3003.dat
1 72 -260 -268 -100 0 0 1 0 1 0 -1 0 0 3003.dat
1 72 -260 -268 -60 0 0 1 0 1 0 -1 0 0 3003.dat
1 72 -300 -268 -140 1 0 0 0 1 0 0 0 1 3003.dat
1 72 -300 -268 -60 1 0 0 0 1 0 0 0 1 3003.dat
1 72 -320 -292 -120 0 0 1 0 1 0 -1 0 0 3003.dat
1 72 -320 -292 -80 0 0 1 0 1 0 -1 0 0 3003.dat
1 72 -280 -292 -120 0 0 1 0 1 0 -1 0 0 3003.dat
1 72 -280 -292 -80 0 0 1 0 1 0 -1 0 0 3003.dat
1 72 -300 -316 -100 0 0 1 0 1 0 -1 0 0 3003.dat
1 71 -150 -340 150 1 0 0 0 1 0 0 0 1 3005.dat
1 4 -150 -364 150 1 0 0 0 1 0 0 0 1 3005.dat
1 4 280 -4 -200 1 0 0 0 1 0 0 0 1 3001.dat
1 4 360 -4 -200 1 0 0 0 1 0 0 0 1 3001.dat
1 4 380 -4 -160 0 0 1 0 1 0 -1 0 0 3003.dat
1 4 280 -4 -120 1 0 0 0 1 0 0 0 1 3001.dat
1 4 360 -4 -120 1 0 0 0 1 0 0 0 1 3001.dat
1 4 260 -4 -160 0 0 1 0 1 0 -1 0 0 3003.dat
1 4 320 -28 -200 1 0 0 0 1 0 0 0 1 3001.dat
1 4 380 -28 -180 0 0 1 0 1 0 -1 0 0 3001.dat
1 4 380 -28 -120 0 0 1 0 1 0 -1 0 0 3003.dat
1 4 320 -28 -120 1 0 0 0 1 0 0 0 1 3001.dat
1 4 260 -28 -180 0 0 1 0 1 0 -1 0 0 3001.dat
1 4 260 -28 -120 0 0 1 0 1 0 -1 0 0 3003.dat
1 4 280 -52 -200 1 0 0 0 1 0 0 0 1 3001.dat
1 4 360 -52 -200 1 0 0 0 1 0 0 0 1 3001.dat
1 4 380 -52 -160 0 0 1 0 1 0 -1 0 0 3003.dat
1 4 280 -52 -120 1 0 0 0 1 0 0 0 1 3001.dat
1 4 360 -52 -120 1 0 0 0 1 0 0 0 1 3001.dat
1 4 260 -52 -160 0 0 1 0 1 0 -1 0 0 3003.dat
1 72 280 -76 -200 1 0 0 0 1 0 0 0 1 3001.dat
1 72 360 -76 -200 1 0 0 0 1 0 0 0 1 3001.dat
1 72 280 -76 -120 1 0 0 0 1 0 0 0 1 3001.dat
1 72 360 -76 -120 1 0 0 0 1 0 0 0 1 3001.dat
1 72 280 -100 -180 1 0 0 0 1 0 0 0 1 3001.dat
1 72 360 -100 -180 1 0 0 0 1 0 0 0 1 3001.dat
1 72 280 -100 -140 1 0 0 0 1 0 0 0 1 3001.dat
1 72 360 -100 -140 1 0 0 0 1 0 0 0 1 3001.dat
1 72 280 -124 -160 1 0 0 0 1 0 0 0 1 3001.dat
1 72 360 -124 -160 1 0 0 0 1 0 0 0 1 3001.dat
1 4 280 -4 0 1 0 0 0 1 0 0 0 1 3001.dat
1 4 360 -4 0 1 0 0 0 1 0 0 0 1 3001.dat
1 4 380 -4 40 0 0 1 0 1 0 -1 0 0 3003.dat
1 4 280 -4 80 1 0 0 0 1 0 0 0 1 3001.dat
1 4 360 -4 80 1 0 0 0 1 0 0 0 1 3001.dat
1 4 260 -4 40 0 0 1 0 1 0 -1 0 0 3003.dat
1 4 320 -28 0 1 0 0 0 1 0 0 0 1 3001.dat
1 4 380 -28 20 0 0 1 0 1 0 -1 0 0 3001.dat
1 4 380 -28 80 0 0 1 0 1 0 -1 0 0 3003.dat
1 4 320 -28 80 1 0 0 0 1 0 0 0 1 3001.dat
1 4 260 -28 20 0 0 1 0 1 0 -1 0 0 3001.dat
1 4 260 -28 80 0 0 1 0 1 0 -1 0 0 3003.dat
1 4 280 -52 0 1 0 0 0 1 0 0 0 1 3001.dat
1 4 360 -52 0 1 0 0 0 1 0 0 0 1 3001.dat
1 4 380 -52 40 0 0 1 0 1 0 -1 0 0 3003.dat
1 4 280 -52 80 1 0 0 0 1 0 0 0 1 3001.dat
1 4 360 -52 80 1 0 0 0 1 0 0 0 1 3001.dat
1 4 260 -52 40 0 0 1 0 1 0 -1 0 0 3003.dat
1 72 280 -76 0 1 0 0 0 1 0 0 0 1 3001.dat
1 72 360 -76 0 1 0 0 0 1 0 0 0 1 3001.dat
1 72 280 -76 80 1 0 0 0 1 0 0 0 1 3001.dat
1 72 360 -76 80 1 0 0 0 1 0 0 0 1 3001.dat
1 72 280 -100 20 1 0 0 0 1 0 0 0 1 3001.dat
1 72 360 -100 20 1 0 0 0 1 0 0 0 1 3001.dat
1 72 280 -100 60 1 0 0 0 1 0 0 0 1 3001.dat
1 72 360 -100 60 1 0 0 0 1 0 0 0 1 3001.dat
1 72 280 -124 40 1 0 0 0 1 0 0 0 1 3001.dat
1 72 360 -124 40 1 0 0 0 1 0 0 0 1 3001.dat
1 4 -360 -4 140 1 0 0 0 1 0 0 0 1 3001.dat
1 4 -280 -4 140 1 0 0 0 1 0 0 0 1 3001.dat
1 4 -260 -4 180 0 0 1 0 1 0 -1 0 0 3003.dat
1 4 -360 -4 220 1 0 0 0 1 0 0 0 1 3001.dat
1 4 -280 -4 220 1 0 0 0 1 0 0 0 1 3001.dat
1 4 -380 -4 180 0 0 1 0 1 0 -1 0 0 3003.dat
1 4 -320 -28 140 1 0 0 0 1 0 0 0 1 3001.dat
1 4 -260 -28 160 0 0 1 0 1 0 -1 0 0 3001.dat
1 4 -260 -28 220 0 0 1 0 1 0 -1 0 0 3003.dat
1 4 -320 -28 220 1 0 0 0 1 0 0 0 1 3001.dat
1 4 -380 -28 160 0 0 1 0 1 0 -1 0 0 3001.dat
1 4 -380 -28 220 0 0 1 0 1 0 -1 0 0 3003.dat
1 4 -360 -52 140 1 0 0 0 1 0 0 0 1 3001.dat
1 4 -280 -52 140 1 0 0 0 1 0 0 0 1 3001.dat
1 4 -260 -52 180 0 0 1 0 1 0 -1 0 0 3003.dat
1 4 -360 -52 220 1 0 0 0 1 0 0 0 1 3001.dat
1 4 -280 -52 220 1 0 0 0 1 0 0 0 1 3001.dat
1 4 -380 -52 180 0 0 1 0 1 0 -1 0 0 3003.dat
1 72 -360 -76 140 1 0 0 0 1 0 0 0 1 3001.dat
1 72 -280 -76 140 1 0 0 0 1 0 0 0 1 3001.dat
1 72 -360 -76 220 1 0 0 0 1 0 0 0 1 3001.dat
1 72 -280 -76 220 1 0 0 0 1 0 0 0 1 3001.dat
1 72 -360 -100 160 1 0 0 0 1 0 0 0 1 3001.dat
1 72 -280 -100 160 1 0 0 0 1 0 0 0 1 3001.dat
1 72 -360 -100 200 1 0 0 0 1 0 0 0 1 3001.dat
1 72 -280 -100 200 1 0 0 0 1 0 0 0 1 3001.dat
1 72 -360 -124 180 1 0 0 0 1 0 0 0 1 3001.dat
1 72 -280 -124 180 1 0 0 0 1 0 0 0 1 3001.dat
1 6 -440 -4 -240 1 0 0 0 1 0 0 0 1 3003.dat
1 6 -440 -28 -240 1 0 0 0 1 0 0 0 1 3003.dat
1 2 -440 -52 -240 1 0 0 0 1 0 0 0 1 3003.dat
1 2 -440 -76 -240 1 0 0 0 1 0 0 0 1 3003.dat
1 6 -440 -4 240 1 0 0 0 1 0 0 0 1 3003.dat
1 6 -440 -28 240 1 0 0 0 1 0 0 0 1 3003.dat
1 2 -440 -52 240 1 0 0 0 1 0 0 0 1 3003.dat
1 2 -440 -76 240 1 0 0 0 1 0 0 0 1 3003.dat
1 6 440 -4 240 1 0 0 0 1 0 0 0 1 3003.dat
1 6 440 -28 240 1 0 0 0 1 0 0 0 1 3003.dat
1 2 440 -52 240 1 0 0 0 1 0 0 0 1 3003.dat
1 2 440 -76 240 1 0 0 0 1 0 0 0 1 3003.dat
1 6 200 -4 160 1 0 0 0 1 0 0 0 1 3003.dat
1 6 200 -28 160 1 0 0 0 1 0 0 0 1 3003.dat
1 2 200 -52 160 1 0 0 0 1 0 0 0 1 3003.dat
1 2 200 -76 160 1 0 0 0 1 0 0 0 1 3003.dat
1 6 -200 -4 -240 1 0 0 0 1 0 0 0 1 3003.dat
1 6 -200 -28 -240 1 0 0 0 1 0 0 0 1 3003.dat
1 2 -200 -52 -240 1 0 0 0 1 0 0 0 1 3003.dat
1 2 -200 -76 -240 1 0 0 0 1 0 0 0 1 3003.dat
1 72 -20 -4 -300 0 0 1 0 1 0 -1 0 0 3020.dat
1 72 20 -4 -300 0 0 1 0 1 0 -1 0 0 3020.dat
1 72 -20 -4 -220 0 0 1 0 1 0 -1 0 0 3020.dat
1 72 20 -4 -220 0 0 1 0 1 0 -1 0 0 3020.dat
1 72 -20 -4 -140 0 0 1 0 1 0 -1 0 0 3020.dat
1 72 20 -4 -140 0 0 1 0 1 0 -1 0 0 3020.dat
1 72 -20 -4 -60 0 0 1 0 1 0 -1 0 0 3020.dat
1 72 20 -4 -60 0 0 1 0 1 0 -1 0 0 3020.dat
